# xmcd
#
# Track frame offsets:
#	150
#	28198
#	53272
#	80387
#
# Disc length: 1413 seconds
#
# Revision: 0
# Processed by: cddbd v1.5.2PL0 Copyright (c) Steve Scherf et al.
# Submitted via: EZCDAudioConverter 1.0.4.1
#
DISCID=22058304
DTITLE=Stone - Empty Suit
DYEAR=1990
DGENRE=Trash Metal
TTITLE0=Empty Suit
TTITLE1=Friends
TTITLE2=Empty Corner (Live)
TTITLE3=Meat Mincing Machine (Live)
EXTD=
EXTT0=
EXTT1=
EXTT2=
EXTT3=
PLAYORDER=
